<?xml version="1.0" encoding="utf-8"?>
<!-- Generator: Adobe Illustrator 26.0.1, SVG Export Plug-In . SVG Version: 6.00 Build 0)  -->
<svg version="1.1" id="Layer_1" xmlns="http://www.w3.org/2000/svg" xmlns:xlink="http://www.w3.org/1999/xlink" x="0px" y="0px"
	 viewBox="0 0 339.5 187.6" style="enable-background:new 0 0 339.5 187.6;" xml:space="preserve">
<style type="text/css">
	.st0{fill:#FFFFFF;}
</style>
<g>
	<g>
		<path class="st0" d="M51.8,129.7V76.2h17.3c18.3,0,26,13.1,26.3,26.2c0.2,6.4-1.4,12.8-5,17.8l19.2-4.7c1.1-4.2,1.6-8.6,1.5-13
			C110.9,81.7,98,61.2,69.1,61.2c-10.3,0-22.7,0-33.1,0v72.4L51.8,129.7z"/>
		<polygon class="st0" points="207.8,91.5 207.8,61.2 191.9,61.2 191.9,95.4 		"/>
		<path class="st0" d="M139.7,108.1l15.9-3.9V75.6h26.7V61.2c-24.4,0-45,0-69.2,0v14.4h26.7V108.1z"/>
		<path class="st0" d="M36.1,137.3v8c10.3,0,22.7,0,33.1,0c19.4,0,31.6-9.3,37.6-21.7L36.1,137.3z"/>
		<polygon class="st0" points="207.8,130.7 207.8,104.1 191.9,107.1 191.9,145.3 251.1,145.3 251.1,130.7 		"/>
		<polygon class="st0" points="139.7,117.2 139.7,145.3 155.6,145.3 155.6,114.2 		"/>
	</g>
	<g>
		<path class="st0" d="M221.8,76.4c2.3-0.8,4.6-1.7,6.8-2.5c0.2-0.1,0.5,0.1,0.7,0.2c2.9,2.1,5.9,4.3,8.8,6.4
			c0.2,0.1,0.5,0.2,0.7,0.1c7-2.5,14-5.1,21-7.6c0,0,0.1,0,0.2-0.1c-5.3-9.5-10.7-18.9-16.1-28.5c0.9-0.3,1.7-0.6,2.5-0.9
			c1.1-0.4,2.2-0.8,3.2-1.2c0.4-0.1,0.6-0.1,0.9,0.2c4,3.7,8,7.5,12,11.2c4.5,4.2,9.1,8.5,13.6,12.7c0.3,0.3,0.6,0.4,1,0.2
			c4.1-1.5,8.2-3.1,12.4-4.5c3.6-1.2,7.3-1.2,10.9,0.1c0.5,0.2,0.9,0.4,1.3,0.7c1.2,0.9,1.5,2.3,0.9,3.8c-0.6,1.6-1.7,2.8-2.9,4
			c-1.9,1.8-4,3.2-6.5,4c-3.9,1.3-7.7,2.8-11.6,4.2c-0.4,0.1-0.5,0.3-0.6,0.7c-1.4,11.5-2.8,23-4.2,34.5c-0.1,0.6-0.3,1-0.9,1.2
			c-1.8,0.6-3.6,1.3-5.5,2c-2-10.8-4-21.4-5.9-32.1c-0.2,0.1-0.4,0.1-0.5,0.1c-6.9,2.5-13.7,5-20.6,7.5c-0.4,0.1-0.5,0.3-0.6,0.7
			c-0.8,3.4-1.7,6.9-2.5,10.3c-0.1,0.5-0.3,0.9-0.9,1c-1.9,0.7-3.9,1.4-5.8,2.1c-0.2,0.1-0.4,0.1-0.6,0.2c0-1,0.1-2,0.1-3
			c0.2-4.7,0.3-9.4,0.5-14.1c0-0.4-0.1-0.7-0.4-1c-3.7-4.1-7.3-8.1-11-12.2C222.1,76.7,222,76.6,221.8,76.4"/>
	</g>
</g>
</svg>
